# xmcd
#
# Track frame offsets: 
#        150
#        14510
#        32690
#        46852
#        63970
#        77320
#        90367
#        108402
#        126707
#        143857
#        157082
#
# Disc length: 2312 seconds
#
# Revision: 2
# Processed by: cddbd v1.5.2PL0 Copyright (c) Steve Scherf et al.
# Submitted via: ExactAudioCopy v0.95b4
#
DISCID=8909060b
DTITLE=John Denver - John Devver's Greatest Hits, Volume Three
DYEAR=1900
DGENRE=Country
TTITLE0=How Can I Leave You Again
TTITLE1=Some Days Are Diamonds (Some Days Are Stone)
TTITLE2=Shanghai Breezes
TTITLE3=Seasons Of The Heart
TTITLE4=Perhaps Love (with Placido Domingo)
TTITLE5=Love Again (with Sylvie Vartan)
TTITLE6=Dancing With The Mountains
TTITLE7=Wild Montana Skies
TTITLE8=I Want To Live
TTITLE9=The Gold And Beyond
TTITLE10=Autograph
EXTD=
EXTT0=
EXTT1=
EXTT2=
EXTT3=
EXTT4=
EXTT5=
EXTT6=
EXTT7=
EXTT8=
EXTT9=
EXTT10=
PLAYORDER=
